<?xml version="1.0" encoding="UTF-8" standalone="no"?><!DOCTYPE svg PUBLIC "-//W3C//DTD SVG 1.1//EN" "http://www.w3.org/Graphics/SVG/1.1/DTD/svg11.dtd"><svg width="100%" height="100%" viewBox="0 0 24 23" version="1.1" xmlns="http://www.w3.org/2000/svg" xmlns:xlink="http://www.w3.org/1999/xlink" xml:space="preserve" xmlns:serif="http://www.serif.com/" style="fill-rule:evenodd;clip-rule:evenodd;stroke-linejoin:round;stroke-miterlimit:1.41421;"><path id="ALARM" d="M23.055,7.127c-1.188,-2.772 -3.41,-4.995 -6.182,-6.182c0.75,-0.59 1.693,-0.945 2.721,-0.945c2.433,0 4.406,1.972 4.406,4.406c0,1.028 -0.355,1.971 -0.945,2.721Zm-0.18,4.873c0,2.889 -1.134,5.507 -2.972,7.455l1.521,1.521c0.201,0.201 0.326,0.479 0.326,0.787c0,0.614 -0.498,1.112 -1.112,1.112c-0.308,0 -0.586,-0.125 -0.787,-0.326l-1.634,-1.634c-1.763,1.232 -3.903,1.96 -6.217,1.96c-2.309,0 -4.446,-0.725 -6.207,-1.952l-1.622,1.622c-0.204,0.204 -0.485,0.33 -0.796,0.33c-0.621,0 -1.125,-0.504 -1.125,-1.125c0,-0.311 0.126,-0.592 0.329,-0.796l1.509,-1.508c-1.832,-1.947 -2.963,-4.562 -2.963,-7.446c0,-6.006 4.869,-10.875 10.875,-10.875c6.006,0 10.875,4.869 10.875,10.875Zm-10.875,-8.625c-4.764,0 -8.625,3.861 -8.625,8.625c0,4.763 3.861,8.625 8.625,8.625c4.763,0 8.625,-3.862 8.625,-8.625c0,-4.764 -3.862,-8.625 -8.625,-8.625Zm4.5,9.75l-4.5,0c-0.621,0 -1.125,-0.504 -1.125,-1.125l0,-6c0,-0.621 0.504,-1.125 1.125,-1.125c0.621,0 1.125,0.504 1.125,1.125l0,4.875l3.375,0c0.621,0 1.125,0.503 1.125,1.125c0,0.621 -0.504,1.125 -1.125,1.125Zm-15.535,-5.846c-0.602,-0.765 -0.965,-1.729 -0.965,-2.779c0,-2.486 2.015,-4.5 4.5,-4.5c1.05,0 2.014,0.363 2.779,0.965c-2.831,1.213 -5.101,3.483 -6.314,6.314Z" style="fill:#95e1d3;"/></svg>