<?xml version="1.0" encoding="UTF-8" standalone="no"?><!DOCTYPE svg PUBLIC "-//W3C//DTD SVG 1.1//EN" "http://www.w3.org/Graphics/SVG/1.1/DTD/svg11.dtd"><svg width="100%" height="100%" viewBox="0 0 24 24" version="1.1" xmlns="http://www.w3.org/2000/svg" xmlns:xlink="http://www.w3.org/1999/xlink" xml:space="preserve" xmlns:serif="http://www.serif.com/" style="fill-rule:evenodd;clip-rule:evenodd;stroke-linejoin:round;stroke-miterlimit:1.41421;"><path id="LINE-GRAPH" serif:id="LINE GRAPH" d="M22.875,24l-21.75,0c-0.621,0 -1.125,-0.504 -1.125,-1.125l0,-21.75c0,-0.621 0.504,-1.125 1.125,-1.125l21.75,0c0.621,0 1.125,0.504 1.125,1.125l0,21.75c0,0.621 -0.504,1.125 -1.125,1.125Zm-1.125,-21.75l-19.5,0l0,19.5l19.5,0l0,-19.5Zm-17.839,9.929l0,-0.001l3,-1.875l0.001,0.001c0.171,-0.105 0.372,-0.166 0.588,-0.166c0.233,0 0.45,0.071 0.63,0.193l0.004,-0.007l4.973,3.315l5.729,-4.043c0.186,-0.136 0.416,-0.217 0.664,-0.217c0.621,0 1.125,0.504 1.125,1.125c0,0.375 -0.184,0.707 -0.466,0.911l0,0.001l-6.375,4.5l0,0c-0.185,0.134 -0.413,0.213 -0.659,0.213c-0.241,0 -0.463,-0.076 -0.646,-0.204l-4.992,-3.328l-2.352,1.469c-0.181,0.124 -0.399,0.197 -0.635,0.197c-0.621,0 -1.125,-0.504 -1.125,-1.125c0,-0.406 0.215,-0.761 0.536,-0.959Z" style="fill:#95e1d3;"/></svg>