<?xml version="1.0" encoding="UTF-8" standalone="no"?><!DOCTYPE svg PUBLIC "-//W3C//DTD SVG 1.1//EN" "http://www.w3.org/Graphics/SVG/1.1/DTD/svg11.dtd"><svg width="100%" height="100%" viewBox="0 0 24 21" version="1.1" xmlns="http://www.w3.org/2000/svg" xmlns:xlink="http://www.w3.org/1999/xlink" xml:space="preserve" xmlns:serif="http://www.serif.com/" style="fill-rule:evenodd;clip-rule:evenodd;stroke-linejoin:round;stroke-miterlimit:1.41421;"><path id="COMPUTER---OK" serif:id="COMPUTER / OK" d="M22.125,17.25l-5.625,0l-1.5,0l0,1.875l1.5,1.5l0,0.375l-9.75,0l0,-0.375l1.5,-1.5l0,-1.875l-1.5,0l-5.625,0c-0.621,0 -1.125,-0.504 -1.125,-1.125l0,-15c0,-0.622 0.504,-1.125 1.125,-1.125l21,0c0.621,0 1.125,0.503 1.125,1.125l0,15c0,0.621 -0.504,1.125 -1.125,1.125Zm-0.375,-15.75l-20.25,0l0,12.75l20.25,0l0,-12.75Zm-12.375,5.25c0.311,0 0.592,0.126 0.795,0.329l0.705,0.705l2.204,-2.205c0.204,-0.203 0.485,-0.329 0.796,-0.329c0.621,0 1.125,0.503 1.125,1.125c0,0.31 -0.126,0.592 -0.33,0.795l-3,3c-0.203,0.204 -0.484,0.33 -0.795,0.33c-0.311,0 -0.592,-0.126 -0.796,-0.33l-1.5,-1.5c-0.203,-0.203 -0.329,-0.485 -0.329,-0.795c0,-0.621 0.504,-1.125 1.125,-1.125Z" style="fill:#95e1d3;"/></svg>