<?xml version="1.0" encoding="UTF-8" standalone="no"?><!DOCTYPE svg PUBLIC "-//W3C//DTD SVG 1.1//EN" "http://www.w3.org/Graphics/SVG/1.1/DTD/svg11.dtd"><svg width="100%" height="100%" viewBox="0 0 24 24" version="1.1" xmlns="http://www.w3.org/2000/svg" xmlns:xlink="http://www.w3.org/1999/xlink" xml:space="preserve" xmlns:serif="http://www.serif.com/" style="fill-rule:evenodd;clip-rule:evenodd;stroke-linejoin:round;stroke-miterlimit:1.41421;"><path id="BOOK-2" serif:id="BOOK 2" d="M23.298,19.417l-10.853,4.491c-0.136,0.059 -0.287,0.092 -0.445,0.092c-0.158,0 -0.309,-0.033 -0.445,-0.092l-10.854,-4.491c-0.411,-0.167 -0.701,-0.571 -0.701,-1.042l0,-17.25c0,-0.622 0.504,-1.125 1.125,-1.125c0.152,0 0.298,0.03 0.43,0.085l0.002,0.001c0.003,0.001 0.007,0.003 0.01,0.004l10.433,4.317l10.433,-4.317c0.003,-0.001 0.007,-0.003 0.01,-0.004l0.002,-0.001c0.132,-0.055 0.278,-0.085 0.43,-0.085c0.621,0 1.125,0.503 1.125,1.125l0,17.25c0,0.471 -0.29,0.875 -0.702,1.042Zm-12.423,-13.04l-8.625,-3.569l0,14.815l8.625,3.569l0,-14.815Zm10.875,-3.569l-8.625,3.569l0,14.815l8.625,-3.569l0,-14.815Zm-6.841,5.168l4.126,-1.875c0.141,-0.065 0.299,-0.101 0.465,-0.101c0.621,0 1.125,0.503 1.125,1.125c0,0.455 -0.271,0.847 -0.659,1.024l-4.126,1.875c-0.141,0.065 -0.299,0.101 -0.465,0.101c-0.621,0 -1.125,-0.504 -1.125,-1.125c0,-0.455 0.27,-0.847 0.659,-1.024Zm0,4.125l4.126,-1.876c0.141,-0.064 0.299,-0.1 0.465,-0.1c0.621,0 1.125,0.503 1.125,1.125c0,0.455 -0.271,0.847 -0.659,1.024l-4.126,1.875l0,0c-0.141,0.064 -0.299,0.101 -0.465,0.101c-0.621,0 -1.125,-0.504 -1.125,-1.125c0,-0.456 0.27,-0.847 0.659,-1.024Zm0,4.125l4.126,-1.875c0.141,-0.065 0.299,-0.101 0.465,-0.101c0.621,0 1.125,0.503 1.125,1.125c0,0.455 -0.271,0.847 -0.659,1.024l-4.126,1.875c-0.141,0.065 -0.299,0.101 -0.465,0.101c-0.621,0 -1.125,-0.504 -1.125,-1.125c0,-0.455 0.27,-0.847 0.659,-1.024Zm-10.409,-10.226c0.166,0 0.324,0.036 0.465,0.101l4.125,1.875c0.389,0.177 0.66,0.569 0.66,1.024c0,0.621 -0.504,1.125 -1.125,1.125c-0.166,0 -0.324,-0.036 -0.466,-0.101l-4.125,-1.875c-0.389,-0.177 -0.659,-0.569 -0.659,-1.024c0,-0.622 0.504,-1.125 1.125,-1.125Zm0,4.125c0.166,0 0.324,0.036 0.465,0.1l4.125,1.876c0.389,0.177 0.66,0.568 0.66,1.024c0,0.621 -0.504,1.125 -1.125,1.125c-0.166,0 -0.324,-0.037 -0.466,-0.101l0,0l-4.125,-1.875c-0.389,-0.177 -0.659,-0.569 -0.659,-1.024c0,-0.622 0.504,-1.125 1.125,-1.125Zm0,4.125c0.166,0 0.324,0.036 0.465,0.101l4.125,1.875c0.389,0.177 0.66,0.569 0.66,1.024c0,0.621 -0.504,1.125 -1.125,1.125c-0.166,0 -0.324,-0.036 -0.466,-0.101l-4.125,-1.875c-0.389,-0.177 -0.659,-0.569 -0.659,-1.024c0,-0.622 0.504,-1.125 1.125,-1.125Z" style="fill:#95e1d3;"/></svg>