<?xml version="1.0" encoding="UTF-8" standalone="no"?><!DOCTYPE svg PUBLIC "-//W3C//DTD SVG 1.1//EN" "http://www.w3.org/Graphics/SVG/1.1/DTD/svg11.dtd"><svg width="100%" height="100%" viewBox="0 0 24 23" version="1.1" xmlns="http://www.w3.org/2000/svg" xmlns:xlink="http://www.w3.org/1999/xlink" xml:space="preserve" xmlns:serif="http://www.serif.com/" style="fill-rule:evenodd;clip-rule:evenodd;stroke-linejoin:round;stroke-miterlimit:1.41421;"><path id="HOME" d="M24,12c0,0.622 -0.504,1.125 -1.125,1.125c-0.296,0 -0.564,-0.117 -0.765,-0.304l-0.003,0.003l-10.078,-10.079l0,-0.001l-0.029,-0.027l0,0l-10.085,10.085l0,-0.001c-0.203,0.201 -0.482,0.324 -0.79,0.324c-0.621,0 -1.125,-0.503 -1.125,-1.125c0,-0.319 0.133,-0.606 0.346,-0.811l10.843,-10.843c0.205,-0.213 0.492,-0.346 0.811,-0.346c0,0 0,0 0,0c0.02,0 0.04,0 0.06,0.002c0.003,0 0.006,0 0.009,0c0.017,0.002 0.034,0.003 0.051,0.005c0.001,0 0.002,0 0.003,0c0.275,0.03 0.521,0.159 0.7,0.351l0,0l4.427,4.426l0,-1.034c0,-0.621 0.504,-1.125 1.125,-1.125c0.621,0 1.125,0.504 1.125,1.125l0,3.284l4.198,4.199l-0.002,0.002c0.187,0.201 0.304,0.469 0.304,0.765Zm-2.25,1.875l0,7.875c0,0.621 -0.504,1.125 -1.125,1.125l-2.25,0l0,-9l-4.5,0l0,9l-10.5,0c-0.621,0 -1.125,-0.504 -1.125,-1.125l0,-3l0,-1.5l0,-3.375l9.75,-9.75l9.75,9.75Zm-11.625,0l-4.5,0l0,4.5l4.5,0l0,-4.5Z" style="fill:#95e1d3;"/></svg>