<?xml version="1.0" encoding="UTF-8" standalone="no"?><!DOCTYPE svg PUBLIC "-//W3C//DTD SVG 1.1//EN" "http://www.w3.org/Graphics/SVG/1.1/DTD/svg11.dtd"><svg width="100%" height="100%" viewBox="0 0 25 24" version="1.1" xmlns="http://www.w3.org/2000/svg" xmlns:xlink="http://www.w3.org/1999/xlink" xml:space="preserve" xmlns:serif="http://www.serif.com/" style="fill-rule:evenodd;clip-rule:evenodd;stroke-linejoin:round;stroke-miterlimit:1.41421;"><path id="IMAGE" d="M22.875,24l-21.75,0c-0.621,0 -1.125,-0.504 -1.125,-1.125l0,-21.75c0,-0.622 0.504,-1.125 1.125,-1.125l21.75,0c0.621,0 1.125,0.503 1.125,1.125l0,21.75c0,0.621 -0.504,1.125 -1.125,1.125Zm-1.125,-21.75l-19.5,0l0,19.5l19.5,0l0,-19.5Zm-16.875,1.125l4.125,0c0.621,0 1.125,0.503 1.125,1.125c0,0.621 -0.504,1.125 -1.125,1.125l-3.375,0l0,3.375c0,0.621 -0.504,1.125 -1.125,1.125c-0.621,0 -1.125,-0.504 -1.125,-1.125l0,-4.125l0,-1.5l1.5,0Zm-1.5,11.625c0,-0.622 0.504,-1.125 1.125,-1.125c0.621,0 1.125,0.503 1.125,1.125l0,3.374l3.375,0l0,0.001c0.621,0 1.125,0.503 1.125,1.125c0,0.621 -0.504,1.125 -1.125,1.125l0,0l-4.125,0l-1.5,0l0,-1.5l0,-4.125Zm11.625,-11.625l5.625,0l0,5.625c0,0.621 -0.504,1.125 -1.125,1.125c-0.621,0 -1.125,-0.504 -1.125,-1.125l0,-3.375l-3.375,0c-0.621,0 -1.125,-0.504 -1.125,-1.125c0,-0.622 0.504,-1.125 1.125,-1.125Zm0,15l0,-0.001l3.375,0l0,-3.374c0,-0.622 0.504,-1.125 1.125,-1.125c0.621,0 1.125,0.503 1.125,1.125l0,5.625l-1.5,0l-4.125,0l0,0c-0.621,0 -1.125,-0.504 -1.125,-1.125c0,-0.622 0.504,-1.125 1.125,-1.125Z" style="fill:#95e1d3;"/></svg>